<svg xmlns="http://www.w3.org/2000/svg" width="2068" height="1388" viewBox="0 0 2068 1388" role="img" aria-label="已脱敏的飞书 AI 协作演示截图">
  <rect width="2068" height="1388" fill="#f6f8fc"/>
  <rect width="2068" height="126" fill="#ffffff"/>
  <circle cx="66" cy="58" r="36" fill="#ffaa58"/>
  <text x="66" y="67" text-anchor="middle" font-family="Arial, sans-serif" font-size="28" fill="#fff">AI</text>
  <text x="112" y="68" font-family="PingFang SC, Microsoft YaHei, Arial, sans-serif" font-size="34" font-weight="700" fill="#222936">AI 助手</text>
  <text x="276" y="68" font-family="PingFang SC, Microsoft YaHei, Arial, sans-serif" font-size="26" fill="#8791a0">内部协作演示群</text>
  <rect x="520" y="22" width="75" height="36" rx="10" fill="#fff1d2"/>
  <text x="558" y="47" text-anchor="middle" font-family="PingFang SC, Microsoft YaHei, Arial, sans-serif" font-size="20" fill="#a3690d">机器人</text>
  <rect x="118" y="78" width="115" height="44" rx="10" fill="#ecf4ff"/>
  <text x="176" y="108" text-anchor="middle" font-family="PingFang SC, Microsoft YaHei, Arial, sans-serif" font-size="24" font-weight="700" fill="#235cf5">消息</text>
  <text x="284" y="108" font-family="PingFang SC, Microsoft YaHei, Arial, sans-serif" font-size="24" fill="#2d3441">任务</text>
  <text x="414" y="108" font-family="PingFang SC, Microsoft YaHei, Arial, sans-serif" font-size="24" fill="#2d3441">文件</text>
  <text x="534" y="108" font-family="PingFang SC, Microsoft YaHei, Arial, sans-serif" font-size="24" fill="#2d3441">云文档</text>
  <text x="675" y="108" font-family="PingFang SC, Microsoft YaHei, Arial, sans-serif" font-size="24" fill="#2d3441">邀请有礼</text>
  <text x="844" y="108" font-family="PingFang SC, Microsoft YaHei, Arial, sans-serif" font-size="24" fill="#2d3441">网页版</text>
  <rect x="108" y="166" width="1934" height="736" rx="12" fill="#d2e2fa"/>
  <text x="142" y="230" font-family="PingFang SC, Microsoft YaHei, Arial, sans-serif" font-size="26" fill="#5f6978">回复 培训同学： [文件] 示例问题清单.xlsx</text>
  <text x="142" y="278" font-family="PingFang SC, Microsoft YaHei, Arial, sans-serif" font-size="31" font-weight="700" fill="#1e2a3c">请把这个 Excel 里的问题整理成中文，并填写更新到下面的飞书表格里。</text>
  <text x="142" y="318" font-family="PingFang SC, Microsoft YaHei, Arial, sans-serif" font-size="31" font-weight="700" fill="#1e2a3c">每个问题单独一行，填写类别、问题和提问人。</text>
  <rect x="1640" y="248" width="170" height="48" rx="8" fill="#eef6ff" stroke="#1c61f0" stroke-width="2"/>
  <text x="1725" y="281" text-anchor="middle" font-family="PingFang SC, Microsoft YaHei, Arial, sans-serif" font-size="24" fill="#1c61f0">示例需求表</text>
  <rect x="142" y="342" width="792" height="514" rx="12" fill="#fff"/>
  <rect x="168" y="374" width="740" height="38" fill="#f5f7fa"/>
  <text x="195" y="400" font-family="PingFang SC, Microsoft YaHei, Arial, sans-serif" font-size="17" fill="#5f6978">设备需求汇总</text>
  <text x="356" y="400" font-family="PingFang SC, Microsoft YaHei, Arial, sans-serif" font-size="17" fill="#5f6978">面板示意图</text>
  <text x="520" y="400" font-family="PingFang SC, Microsoft YaHei, Arial, sans-serif" font-size="17" fill="#5f6978">功能列表</text>
  <text x="665" y="400" font-family="PingFang SC, Microsoft YaHei, Arial, sans-serif" font-size="17" fill="#5f6978">Q&amp;A 示例</text>
  <g stroke="#d2d8e1" stroke-width="1" fill="#fff"><rect x="168" y="422" width="908" height="42" fill="#f6f8fa"/><rect x="168" y="464" width="908" height="72"/><rect x="168" y="536" width="908" height="135"/><rect x="168" y="671" width="908" height="115"/><line x1="226" y1="422" x2="226" y2="786"/><line x1="346" y1="422" x2="346" y2="786"/><line x1="776" y1="422" x2="776" y2="786"/><line x1="886" y1="422" x2="886" y2="786"/></g>
  <g font-family="PingFang SC, Microsoft YaHei, Arial, sans-serif" font-size="16" fill="#374151"><text x="282" y="449" text-anchor="middle">类别</text><text x="555" y="449" text-anchor="middle">问题</text><text x="831" y="449" text-anchor="middle">提问者</text><text x="982" y="449" text-anchor="middle">备注</text><text x="196" y="494" text-anchor="middle">1</text><text x="286" y="494" text-anchor="middle">软件</text><text x="356" y="494">切换动作后配置是否会保留？</text><text x="831" y="494" text-anchor="middle">同事A</text><text x="982" y="494" text-anchor="middle">待确认</text><text x="196" y="572" text-anchor="middle">2</text><text x="286" y="572" text-anchor="middle">软件</text><text x="356" y="572">断电重启后端口状态是否恢复？</text><text x="831" y="572" text-anchor="middle">同事B</text><text x="982" y="572" text-anchor="middle">已记录</text><text x="196" y="706" text-anchor="middle">3</text><text x="286" y="706" text-anchor="middle">测试</text><text x="356" y="706">请补充复现步骤和期望结果。</text><text x="831" y="706" text-anchor="middle">同事C</text><text x="982" y="706" text-anchor="middle">示例</text><text x="164" y="850" font-size="26">AI 助手  可阅读</text></g>
  <rect x="1710" y="828" width="288" height="52" rx="24" fill="#ecf8f5" stroke="#00899f" stroke-width="3"/>
  <text x="1854" y="863" text-anchor="middle" font-family="PingFang SC, Microsoft YaHei, Arial, sans-serif" font-size="25" fill="#00899f">已脱敏演示截图</text>
  <rect x="108" y="943" width="1210" height="437" rx="12" fill="#fff" stroke="#dee2eb" stroke-width="2"/>
  <text x="142" y="1008" font-family="PingFang SC, Microsoft YaHei, Arial, sans-serif" font-size="26" fill="#5f6978">回复 培训同学：请整理示例问题并写入飞书表格。</text>
  <text x="142" y="1074" font-family="PingFang SC, Microsoft YaHei, Arial, sans-serif" font-size="32" font-weight="700" fill="#232a37">已全部完成</text>
  <rect x="348" y="1045" width="42" height="34" rx="8" fill="#34b854"/><text x="369" y="1069" text-anchor="middle" font-family="Arial, sans-serif" font-size="20" font-weight="700" fill="#fff">OK</text>
  <g font-family="PingFang SC, Microsoft YaHei, Arial, sans-serif" font-size="27" fill="#232a37"><text x="142" y="1150">已将示例 Excel 中的 6 个问题整理成中文并填写到飞书表格，每个问题单独一行。</text><text x="142" y="1228">已填写字段：</text><text x="160" y="1270">• 类别：软件 / 测试 / 文档</text><text x="160" y="1312">• 问题：整理后的中文问题</text><text x="160" y="1354">• 提问者：演示同学</text></g>
</svg>
